# xmcd CD database file
#
# Track frame offsets:
#	150
#	19110
#	33804
#	48045
#	62195
#	73606
#	88900
#	106121
#	121517
#	137783
#	156870
#	172431
#
# Disc length: 2503 seconds
#
# Revision: 0
# Processed by: cddbd v1.5.1PL0 Copyright (c) Steve Scherf et al.
# Submitted via: CDex 1.51
#
DISCID=9c09c50c
DTITLE=Katie Melua - Call off the search
DYEAR=2004
DGENRE=Jazz
TTITLE0=Call off the search
TTITLE1=Crawling up a hill
TTITLE2=The closest thing to crazy
TTITLE3=My aphrodisiac is you
TTITLE4=Learnin' the blues
TTITLE5=Blame it on the moon
TTITLE6=Belfast (Penguins and Cats)
TTITLE7=I think it's going to rain today
TTITLE8=Mockingbird song
TTITLE9=Tiger in the night
TTITLE10=Faraway voice
TTITLE11=Lilac wine
EXTD=YEAR: 2004
EXTT0=
EXTT1=
EXTT2=
EXTT3=
EXTT4=
EXTT5=
EXTT6=
EXTT7=
EXTT8=
EXTT9=
EXTT10=
EXTT11=
PLAYORDER=
